<?xml version="1.0" encoding="utf-8"?>
<!-- Generator: Adobe Illustrator 21.1.0, SVG Export Plug-In . SVG Version: 6.00 Build 0)  -->
<!DOCTYPE svg PUBLIC "-//W3C//DTD SVG 1.1//EN" "http://www.w3.org/Graphics/SVG/1.1/DTD/svg11.dtd">
<svg version="1.1" xmlns="http://www.w3.org/2000/svg" xmlns:xlink="http://www.w3.org/1999/xlink" x="0px" y="0px"
	 viewBox="0 0 59.5 59.5" style="enable-background:new 0 0 59.5 59.5;" xml:space="preserve">
<style type="text/css">
	.st0{display:none;}
	.st1{display:inline;}
	.st2{fill:#DBDBDD;}
	.st3{fill:none;stroke:#232324;stroke-width:1.5;stroke-miterlimit:10;}
	.st4{fill:none;stroke:#232324;stroke-width:1.5;stroke-linecap:round;stroke-linejoin:round;stroke-miterlimit:10;}
	.st5{fill:none;stroke:#000000;stroke-width:1.5;stroke-linecap:round;stroke-linejoin:round;stroke-miterlimit:10;}
	.st6{fill:#FFFFFF;}
	.st7{fill:none;stroke:#232324;stroke-width:1.316;stroke-linecap:round;stroke-linejoin:round;stroke-miterlimit:10;}
	.st8{fill:none;stroke:#232324;stroke-width:1.5;stroke-linecap:square;stroke-linejoin:round;stroke-miterlimit:10;}
	.st9{fill:none;stroke:#232324;stroke-width:1.343;stroke-linecap:round;stroke-linejoin:round;stroke-miterlimit:10;}
	.st10{fill:#232324;}
	.st11{fill:none;stroke:#232324;stroke-width:1.357;stroke-miterlimit:10;}
	.st12{fill:none;stroke:#232324;stroke-linecap:round;stroke-miterlimit:10;}
	.st13{fill:none;stroke:#232324;stroke-width:1.357;stroke-linecap:round;stroke-miterlimit:10;}
	.st14{fill:none;stroke:#232323;stroke-width:1.343;stroke-linecap:round;stroke-miterlimit:10;}
	.st15{fill:#232323;}
	.st16{fill:none;stroke:#232323;stroke-width:1.5;stroke-linecap:round;stroke-linejoin:round;stroke-miterlimit:10;}
	.st17{fill:none;stroke:#232323;stroke-width:1.5;stroke-linecap:round;stroke-miterlimit:10;}
	.st18{fill:none;stroke:#232323;stroke-miterlimit:10;}
	.st19{fill:none;stroke:#232323;stroke-linecap:round;stroke-linejoin:round;stroke-miterlimit:10;}
	.st20{fill:none;stroke:#232323;stroke-width:1.5;stroke-miterlimit:10;}
	.st21{fill:none;stroke:#232324;stroke-linecap:round;stroke-linejoin:round;stroke-miterlimit:10;}
	.st22{fill:none;stroke:#232323;stroke-width:1.2;stroke-linecap:round;stroke-linejoin:round;stroke-miterlimit:10;}
	.st23{fill:none;stroke:#232324;stroke-width:1.37;stroke-linecap:round;stroke-linejoin:round;stroke-miterlimit:10;}
	.st24{fill:none;stroke:#232324;stroke-width:1.37;stroke-miterlimit:10;}
	.st25{fill:none;stroke:#232324;stroke-width:1.37;stroke-linecap:square;stroke-miterlimit:10;}
	.st26{fill:none;stroke:#232324;stroke-miterlimit:10;}
	.st27{fill:none;stroke:#232324;stroke-width:1.343;stroke-miterlimit:10;}
	.st28{fill:#ECEDED;}
</style>
<g id="shield" class="st0">
	<g class="st1">
		<g>
			<g>
				<path class="st2" d="M29.8,15.3l-14.5,6.5c0,0,0.8,8.1,3.8,15c2.2,5.1,9.5,9.5,10.7,9.5"/>
				<path class="st3" d="M29.8,46.3c1.2,0,8.5-4.4,10.7-9.5c3-6.9,3.8-15,3.8-15l-14.5-6.5l-14.5,6.5c0,0,0.8,8.1,3.8,15
					C21.3,41.9,28.5,46.3,29.8,46.3z"/>
			</g>
		</g>
	</g>
</g>
<g id="graph" class="st0">
	<g class="st1">
		<path class="st4" d="M33.1,27.2h-6.6v15.9h6.6V27.2z M22.2,34.2h-6.6v9h6.6V34.2z M11.3,43.2h36.8"/>
		<polyline class="st2" points="44,23.8 44,22.4 47.4,22.4 40.7,13.6 33.8,22.4 37.4,22.5 37.4,22.8 37.4,23.1 37.4,23.8 37.4,22.4 
			37.4,43.2 44,43.2 44,22.4 		"/>
		<polyline class="st3" points="44,23.8 44,22.4 47.4,22.4 40.7,13.6 33.8,22.4 37.4,22.5 37.4,22.8 37.4,23.1 37.4,23.8 37.4,22.4 
			37.4,43.2 44,43.2 44,22.4 		"/>
	</g>
</g>
<g id="plus" class="st0">
	<g class="st1">
		<rect x="26.7" y="17.3" class="st2" width="3" height="24.9"/>
		<rect x="17.3" y="27.1" class="st2" width="10" height="5.7"/>
		<polygon class="st3" points="32.8,26.7 32.8,17.3 26.7,17.3 26.7,26.7 17.3,26.7 17.3,32.8 26.7,32.8 26.7,42.2 32.8,42.2 
			32.8,32.8 42.2,32.8 42.2,26.7 32.8,26.7 		"/>
	</g>
</g>
<g id="dollar" class="st0">
	<g class="st1">
		<path class="st2" d="M29.9,48.2v-9.3h-0.7c-1.2-0.1-2-0.5-2.6-1c-0.8-0.7-1.2-1.9-1.2-3.4h-7c0,1.9,0.5,3.6,1.4,5.1
			c1,1.5,2.4,2.6,4.3,3.5c1.1,0.5,2.2,0.8,3.4,1v4.2H29.9z"/>
		<path class="st2" d="M24.8,30.2c1.2,0.6,2.6,1.2,4.5,1.8c0.2,0.1,0.4,0.1,0.6,0.2V26c-1.1-0.4-2-0.9-2.5-1.3
			c-0.8-0.6-1.2-1.3-1.2-2c0-0.8,0.4-1.6,1.1-2.1c0.7-0.5,1.5-0.8,2.6-0.8v-9.3h-2.4v4.2c-1,0.2-2,0.4-2.9,0.8c-1.7,0.7-3,1.6-4,2.9
			c-0.9,1.2-1.4,2.6-1.4,4.3C19.2,25.9,21.1,28.4,24.8,30.2"/>
		<path class="st5" d="M36.5,28.7c-1.3-0.7-2.9-1.4-4.9-2.1c-2-0.6-3.4-1.3-4.2-1.9c-0.8-0.6-1.2-1.3-1.2-2c0-0.9,0.4-1.6,1.1-2.1
			c0.7-0.5,1.7-0.8,2.9-0.8h0.2c1.2,0,2.1,0.3,2.9,1c0.7,0.6,1.1,1.6,1.1,2.7h7c0-1.8-0.5-3.3-1.4-4.7c-0.9-1.4-2.2-2.4-3.9-3.2
			c-1.1-0.5-2.3-0.8-3.6-1v-4.1h-4.9v4.2c-1,0.2-2,0.4-2.9,0.8c-1.7,0.7-3,1.6-4,2.9c-0.9,1.2-1.4,2.6-1.4,4.3
			c0,3.2,1.9,5.8,5.6,7.6c1.2,0.6,2.6,1.2,4.5,1.8c1.8,0.6,3.1,1.2,3.8,1.8s1.1,1.4,1.1,2.4c0,0.9-0.3,1.6-1,2.1
			c-0.5,0.4-1.1,0.6-1.8,0.7h-2.2c-1.2-0.1-2-0.5-2.6-1c-0.8-0.7-1.2-1.9-1.2-3.4h-7c0,1.9,0.5,3.6,1.4,5.1s2.4,2.6,4.3,3.5
			c1.1,0.5,2.2,0.8,3.4,1v4.2h4.9v-4.1c2.4-0.2,4.4-0.9,6-2.1c1.9-1.4,2.9-3.4,2.9-6C41.2,33,39.6,30.5,36.5,28.7z"/>
	</g>
</g>
<g id="micro" class="st0">
	<g class="st1">
		<path class="st3" d="M19.2,14.2l10.2,13 M40.2,19.8l-10.7,7.6 M44,35.1l-16.3-7.7 M29.6,46l-0.4-17.6 M29.2,28.4l-11.8,6.1"/>
		<path class="st6" d="M35.5,28.7c-0.7,3.3-3.9,5.5-7.2,4.8c-3.3-0.7-5.4-4-4.7-7.3c0.7-3.3,3.9-5.5,7.2-4.8
			C34.1,22.1,36.2,25.4,35.5,28.7"/>
		<path class="st3" d="M35.5,28.7c-0.7,3.3-3.9,5.5-7.2,4.8c-3.3-0.7-5.4-4-4.7-7.3c0.7-3.3,3.9-5.5,7.2-4.8
			C34.1,22.1,36.2,25.4,35.5,28.7z"/>
		<path class="st6" d="M47.1,18.4c-0.4,1.9-2.2,3.1-4.1,2.7c-1.9-0.4-3.1-2.2-2.7-4.1c0.4-1.9,2.2-3.1,4.1-2.7
			C46.3,14.7,47.5,16.6,47.1,18.4"/>
		<ellipse transform="matrix(0.2056 -0.9786 0.9786 0.2056 17.3603 56.8448)" class="st3" cx="43.7" cy="17.7" rx="3.5" ry="3.5"/>
		<path class="st2" d="M23,15.9c-0.3,1.3-1.6,2.1-2.9,1.9c-1.3-0.3-2.1-1.5-1.9-2.9s1.5-2.1,2.9-1.9C22.5,13.3,23.3,14.6,23,15.9"/>
		<ellipse transform="matrix(0.2054 -0.9787 0.9787 0.2054 1.3733 32.4632)" class="st3" cx="20.7" cy="15.4" rx="2.4" ry="2.4"/>
		<path class="st6" d="M16.1,33.4c1.7,0.8,2.5,2.8,1.8,4.6c-0.8,1.7-2.8,2.5-4.6,1.8c-1.7-0.8-2.5-2.8-1.8-4.6
			C12.3,33.4,14.3,32.6,16.1,33.4"/>
		<ellipse transform="matrix(0.4045 -0.9146 0.9146 0.4045 -24.69 35.1659)" class="st3" cx="14.7" cy="36.5" rx="3.5" ry="3.5"/>
		<path class="st2" d="M32,46.5c-0.3,1.3-1.6,2.2-2.9,1.9c-1.3-0.3-2.2-1.6-1.9-2.9c0.3-1.3,1.6-2.2,2.9-1.9
			C31.4,43.9,32.3,45.2,32,46.5"/>
		<ellipse transform="matrix(0.2055 -0.9786 0.9786 0.2055 -21.5126 65.5209)" class="st3" cx="29.6" cy="46" rx="2.5" ry="2.5"/>
		<path class="st6" d="M45.9,35c0.2,1-0.4,2-1.5,2.2c-1,0.2-2-0.4-2.2-1.5c-0.2-1,0.4-2,1.5-2.2C44.7,33.3,45.7,34,45.9,35"/>
		<ellipse transform="matrix(0.9796 -0.2008 0.2008 0.9796 -6.2084 9.5608)" class="st3" cx="44" cy="35.4" rx="1.9" ry="1.9"/>
	</g>
</g>
<g id="pin" class="st0">
	<g class="st1">
		<g>
			<path class="st2" d="M34.9,41.3C35,37,33.1,32.7,29.3,30c-3.8-2.7-8.5-3.2-12.6-1.6L34.9,41.3z"/>
			<path class="st7" d="M34.9,41.3C35,37,33.1,32.7,29.3,30c-3.8-2.7-8.5-3.2-12.6-1.6L34.9,41.3z"/>
			<path class="st2" d="M32.3,14.3c-1.6,2.2-0.4,5.7,2.6,7.9c3,2.2,6.7,2.1,8.3,0L32.3,14.3z"/>
			<path class="st7" d="M32.3,14.3c-1.6,2.2-0.4,5.7,2.6,7.9c3,2.2,6.7,2.1,8.3,0L32.3,14.3z"/>
		</g>
		<polygon class="st2" points="39.1,23.9 32,18.8 24.5,27.9 32.9,33.9 		"/>
		<polygon class="st7" points="39.1,23.9 32,18.8 24.5,27.9 32.9,33.9 		"/>
		<line class="st7" x1="25.7" y1="34.8" x2="18.5" y2="44.9"/>
		<g>
			<path class="st2" d="M34.9,41.3C35,37,33.1,32.7,29.3,30c-3.8-2.7-8.5-3.2-12.6-1.6L34.9,41.3z"/>
			<path class="st7" d="M34.9,41.3C35,37,33.1,32.7,29.3,30c-3.8-2.7-8.5-3.2-12.6-1.6L34.9,41.3z"/>
			<path class="st2" d="M32.3,14.3c-1.6,2.2-0.4,5.7,2.6,7.9c3,2.2,6.7,2.1,8.3,0L32.3,14.3z"/>
			<path class="st7" d="M32.3,14.3c-1.6,2.2-0.4,5.7,2.6,7.9c3,2.2,6.7,2.1,8.3,0L32.3,14.3z"/>
		</g>
		<polygon class="st6" points="39.1,23.9 32,18.8 24.5,27.9 32.9,33.9 		"/>
		<polygon class="st7" points="39.1,23.9 32,18.8 24.5,27.9 32.9,33.9 		"/>
		<polygon class="st2" points="35.4,21.2 32,18.8 24.5,27.9 28.5,30.8 		"/>
		<path class="st7" d="M25.7,34.8l-7.2,10 M39.1,23.9L32,18.8l-7.5,9.1l8.4,6L39.1,23.9z"/>
	</g>
</g>
<g id="bank" class="st0">
	<g class="st1">
		<g>
			<path class="st2" d="M38.2,18.9c0.1-1.9,2.4-3.9,2.4-3.9c-2.2-1.6-5.3-1.1-7,1.1l-0.3,0.3c-1.5-0.4-3.3-0.7-5-0.7
				c-8.4,0-15.2,5.9-15.2,13.1c0,4.1,2.1,7.7,5.5,10.1l0.1,0.1v5h6.2v-2.4l0.1,0c1.1,0.2,2.1,0.3,3.3,0.3c0.8,0,2.1-0.1,2.1-0.1V42
				v2.1h6.2v-4.2l0.1-0.1c3-1.7,5.2-4.3,6.2-7.4h0.1h2.1c0.9,0,1.7-0.8,1.7-1.7v-3.6c0-0.9-0.8-1.7-1.7-1.7H43l0-0.1
				C42.1,22.7,40.5,20.6,38.2,18.9L38.2,18.9z"/>
			<path class="st4" d="M38.2,18.9c0.1-1.9,2.4-3.9,2.4-3.9c-2.2-1.6-5.3-1.1-7,1.1l-0.3,0.3c-1.5-0.4-3.3-0.7-5-0.7
				c-8.4,0-15.2,5.9-15.2,13.1c0,4.1,2.1,7.7,5.5,10.1l0.1,0.1v5h6.2v-2.4l0.1,0c1.1,0.2,2.1,0.3,3.3,0.3c0.8,0,2.1-0.1,2.1-0.1V42
				v2.1h6.2v-4.2l0.1-0.1c3-1.7,5.2-4.3,6.2-7.4h0.1h2.1c0.9,0,1.7-0.8,1.7-1.7v-3.6c0-0.9-0.8-1.7-1.7-1.7H43l0-0.1
				C42.1,22.7,40.5,20.6,38.2,18.9L38.2,18.9z"/>
			<path class="st6" d="M23.7,19.5c-0.9-0.9-1.5-2.2-1.5-3.6c0-2.8,2.3-5.1,5.1-5.1c2.8,0,5.1,2.3,5.1,5.1c0,1.4-0.6,2.8-1.6,3.7"/>
			<path class="st3" d="M23.7,19.5c-0.9-0.9-1.5-2.2-1.5-3.6c0-2.8,2.3-5.1,5.1-5.1c2.8,0,5.1,2.3,5.1,5.1c0,1.4-0.6,2.8-1.6,3.7"/>
			<path class="st8" d="M32,19.7c-1.5-0.3-3.1-0.5-4.7-0.4c-1.6,0-3.2,0.3-4.7,0.7"/>
		</g>
	</g>
</g>
<g id="chair" class="st0">
	<g class="st1">
		<path class="st6" d="M49.1,38.5c-4.3,5.5-11,9-18.6,9c-7.6,0-14.3-3.6-18.7-9.1"/>
		<path class="st4" d="M49.1,38.5c-4.3,5.5-11,9-18.6,9c-7.6,0-14.3-3.6-18.7-9.1"/>
		<polygon class="st2" points="21.7,37.7 46.8,33 45.8,27.4 25.5,31.2 25.4,30.9 19.5,14.7 14.1,16.7 21.7,37.6 		"/>
		<polygon class="st4" points="21.7,37.7 46.8,33 45.8,27.4 25.5,31.2 25.4,30.9 19.5,14.7 14.1,16.7 21.7,37.6 		"/>
		<polygon class="st6" points="16.5,15.7 23.4,34.8 46.3,30.2 45.8,27.4 25.5,31.2 19.5,14.7 		"/>
		<path class="st4" d="M35.3,23.4l2.1,22.9 M42.8,21.7l-14.8,2.8l-8.8,20 M21.7,37.7L46.8,33l-1.1-5.7l-20.3,3.8l-0.1-0.3l-5.8-16.2
			l-5.4,2l7.5,20.9L21.7,37.7z"/>
	</g>
</g>
<g id="trophy" class="st0">
	<g class="st1">
		<g>
			<path class="st9" d="M21.9,29.2c-1.9,0-5.7-1.7-5.7-6c0-2.4,1.6-4.3,3.5-4.3c0.7,0,1.3,0.2,1.8,0.7 M38.1,19.4
				c0.5-0.3,1-0.4,1.5-0.4c1.9,0,3.5,1.9,3.5,4.3c0,4.3-3.8,6-5.7,6"/>
			<path class="st2" d="M29.9,34.8h-0.2c-1.3,0-2.7-0.1-3.7-0.9c-6.7-5.6-4.7-18.5-4.7-18.5h16.8c0,0,1.9,12.8-4.7,18.6
				C32.5,34.8,31.2,34.8,29.9,34.8"/>
			<path class="st9" d="M29.9,34.8h-0.2c-1.3,0-2.7-0.1-3.7-0.9c-6.7-5.6-4.7-18.5-4.7-18.5h16.8c0,0,1.9,12.8-4.7,18.6
				C32.5,34.8,31.2,34.8,29.9,34.8z"/>
			<path class="st6" d="M38.1,15.4h-8.4v19.4h0h0.2c1.3,0,2.6,0,3.5-0.8C40,28.2,38.1,15.4,38.1,15.4"/>
			<path class="st9" d="M29.9,34.8h-0.2c-1.3,0-2.7-0.1-3.7-0.9c-6.7-5.6-4.7-18.5-4.7-18.5h16.8c0,0,1.9,12.8-4.7,18.6
				C32.5,34.8,31.2,34.8,29.9,34.8z"/>
		</g>
		<rect x="27.9" y="34.9" class="st6" width="3.7" height="5.4"/>
		<rect x="27.9" y="34.9" class="st9" width="3.7" height="5.4"/>
		<rect x="23" y="43.7" class="st2" width="13.4" height="3.3"/>
		<rect x="23" y="40.4" class="st9" width="13.4" height="6.6"/>
	</g>
</g>
<g id="info" class="st0">
	<g class="st1">
		<g>
			<path class="st3" d="M36.1,24.7c6.7,6.7,9.5,14.9,6.1,18.3c-3.4,3.4-11.5,0.6-18.3-6.1c-6.7-6.7-9.5-14.9-6.1-18.3
				C21.2,15.2,29.4,17.9,36.1,24.7z M36.1,36.8c-6.8,6.8-15,9.5-18.3,6.2c-3.4-3.4-0.6-11.6,6.2-18.3c6.8-6.8,15-9.5,18.3-6.2
				C45.6,21.9,42.9,30.1,36.1,36.8z"/>
		</g>
		<line class="st4" x1="30" y1="29.7" x2="30" y2="35.2"/>
		<path class="st10" d="M31.1,26.8c0,0.6-0.5,1.1-1.1,1.1c-0.6,0-1.1-0.5-1.1-1.1c0-0.6,0.5-1.1,1.1-1.1
			C30.6,25.7,31.1,26.2,31.1,26.8"/>
		<path class="st2" d="M42.8,17c0,1.3-1.1,2.4-2.4,2.4c-1.3,0-2.4-1.1-2.4-2.4c0-1.3,1.1-2.4,2.4-2.4C41.7,14.7,42.8,15.7,42.8,17"
			/>
		<circle class="st3" cx="40.4" cy="17" r="2.4"/>
		<path class="st2" d="M19,24.7c0,1.3-1.1,2.4-2.4,2.4c-1.3,0-2.4-1.1-2.4-2.4c0-1.3,1.1-2.4,2.4-2.4C18,22.3,19,23.4,19,24.7"/>
		<circle class="st3" cx="16.7" cy="24.7" r="2.4"/>
	</g>
</g>
<g id="bookmark">
	<g>
		<g>
			<path class="st2" d="M42.6,15.1H20.1c-1.3,0-2.4,1.1-2.4,2.4v24.6c0,1.3,1.1,2.4,2.4,2.4h20.1c1.3,0,2.4-1.1,2.4-2.4V15.1z"/>
			<path class="st11" d="M42.6,15.1H20.1c-1.3,0-2.4,1.1-2.4,2.4v24.6c0,1.3,1.1,2.4,2.4,2.4h20.1c1.3,0,2.4-1.1,2.4-2.4V15.1z"/>
			<path class="st6" d="M42.6,44.5H20.9c-1.4,0-2.5-1.1-2.5-2.5v-0.4c0-1.4,1.1-2.5,2.5-2.5h21.7V44.5z"/>
			<path class="st11" d="M42.6,44.5H20.9c-1.4,0-2.5-1.1-2.5-2.5v-0.4c0-1.4,1.1-2.5,2.5-2.5h21.7V44.5z"/>
		</g>
		<line class="st12" x1="42.6" y1="42" x2="21.3" y2="42"/>
		<polygon class="st6" points="38.2,29.8 35.5,26.6 32.9,29.8 32.9,15.1 38.2,15.1 		"/>
		<polygon class="st13" points="38.2,29.8 35.5,26.6 32.9,29.8 32.9,15.1 38.2,15.1 		"/>
	</g>
</g>
<g id="calendar" class="st0">
	<g class="st1">
		<rect x="17.2" y="17.2" class="st6" width="24.8" height="26.2"/>
		<rect x="17.2" y="17.2" class="st14" width="24.8" height="26.2"/>
		<rect x="17.2" y="17.2" class="st2" width="24.8" height="7.8"/>
		<rect x="17.2" y="17.2" class="st14" width="24.8" height="7.8"/>
		<line class="st14" x1="24.2" y1="20.6" x2="24.2" y2="13.4"/>
		<line class="st14" x1="35.1" y1="20.6" x2="35.1" y2="13.4"/>
		<path class="st15" d="M24.2,30.3c0,0.8-0.7,1.5-1.5,1.5c-0.8,0-1.5-0.7-1.5-1.5c0-0.8,0.7-1.5,1.5-1.5
			C23.6,28.8,24.2,29.4,24.2,30.3"/>
		<path class="st15" d="M37.9,30.3c0,0.8-0.7,1.5-1.5,1.5c-0.8,0-1.5-0.7-1.5-1.5c0-0.8,0.7-1.5,1.5-1.5
			C37.3,28.8,37.9,29.4,37.9,30.3"/>
		<path class="st15" d="M31.1,30.3c0,0.8-0.7,1.5-1.5,1.5c-0.8,0-1.5-0.7-1.5-1.5c0-0.8,0.7-1.5,1.5-1.5
			C30.4,28.8,31.1,29.4,31.1,30.3"/>
		<path class="st15" d="M24.2,37c0,0.8-0.7,1.5-1.5,1.5c-0.8,0-1.5-0.7-1.5-1.5c0-0.8,0.7-1.5,1.5-1.5C23.6,35.5,24.2,36.2,24.2,37"
			/>
		<path class="st15" d="M37.9,37c0,0.8-0.7,1.5-1.5,1.5c-0.8,0-1.5-0.7-1.5-1.5c0-0.8,0.7-1.5,1.5-1.5C37.3,35.5,37.9,36.2,37.9,37"
			/>
		<path class="st15" d="M31.1,37c0,0.8-0.7,1.5-1.5,1.5c-0.8,0-1.5-0.7-1.5-1.5c0-0.8,0.7-1.5,1.5-1.5C30.4,35.5,31.1,36.2,31.1,37"
			/>
	</g>
</g>
<g id="cap" class="st0">
	<g class="st1">
		<polygon class="st2" points="11.7,29.3 29.5,16.8 47.3,29.3 29.5,38 		"/>
		<path class="st15" d="M29.5,15.9L10.2,29.4l19.2,9.4l19.2-9.4L29.5,15.9z M29.5,17.7l16.3,11.4l-16.3,8l-16.3-8L29.5,17.7z"/>
		<g>
			<path class="st6" d="M19.4,40.3v-9.6c0-1.8,4.5-3.3,10.1-3.3c5.6,0,10.1,1.5,10.1,3.3v9.6"/>
			<path class="st16" d="M19.4,40.3v-9.6c0-1.8,4.5-3.3,10.1-3.3c5.6,0,10.1,1.5,10.1,3.3v9.6"/>
			<path class="st2" d="M39.6,40.3c0,1.8-4.5,3.3-10.1,3.3c-5.6,0-10.1-1.5-10.1-3.3c0-1.8,4.5-3.3,10.1-3.3
				C35.1,37,39.6,38.4,39.6,40.3"/>
			<ellipse class="st17" cx="29.5" cy="40.3" rx="10.1" ry="3.3"/>
		</g>
		<line class="st18" x1="47.4" y1="29.4" x2="47.4" y2="38.7"/>
		<path class="st6" d="M49.2,38.7c0,1-0.8,1.8-1.8,1.8s-1.8-0.8-1.8-1.8c0-1,0.8-1.8,1.8-1.8S49.2,37.7,49.2,38.7"/>
		<circle class="st19" cx="47.4" cy="38.7" r="1.8"/>
	</g>
</g>
<g id="globe" class="st0">
	<g class="st1">
		<path class="st20" d="M17.7,34.5h24 M17.7,25h24 M32.3,16.4c1.7,2.5,2.8,7.6,2.8,13.3c0,5.8-1.1,10.8-2.8,13.3 M27.2,43
			c-1.7-2.6-2.8-7.5-2.8-13.3c0-5.6,1.1-10.4,2.7-13.1 M43.1,29.8c0,7.4-6,13.3-13.3,13.3c-7.4,0-13.3-6-13.3-13.3
			c0-7.4,6-13.3,13.3-13.3C37.1,16.4,43.1,22.4,43.1,29.8z"/>
	</g>
</g>
<g id="wallet" class="st0">
	<g class="st1">
		<rect x="14.8" y="21" class="st2" width="29.9" height="20.5"/>
		<rect x="14.8" y="21" class="st4" width="29.9" height="20.5"/>
		<polyline class="st6" points="23,24.3 37.5,15.6 40.9,24.2 		"/>
		<polyline class="st4" points="23,24.3 37.5,15.6 40.9,24.2 		"/>
		<line class="st4" x1="44.2" y1="24.4" x2="19.1" y2="24.4"/>
		<path class="st6" d="M35.4,35.3h9.1c0.1,0,0.2-0.1,0.2-0.2v-6.5c0-0.1-0.1-0.2-0.2-0.2h-9.2c-2,0-3.6,1.5-3.6,3.3
			C31.7,33.7,33.4,35.3,35.4,35.3"/>
		<path class="st21" d="M35.4,35.3h9.1c0.1,0,0.2-0.1,0.2-0.2v-6.5c0-0.1-0.1-0.2-0.2-0.2h-9.2c-2,0-3.6,1.5-3.6,3.3
			C31.7,33.7,33.4,35.3,35.4,35.3z"/>
	</g>
</g>
<g id="list" class="st0">
	<g class="st1">
		<rect x="20.3" y="18.2" class="st2" width="22.8" height="28.2"/>
		<rect x="20.3" y="18.2" class="st3" width="22.8" height="28.2"/>
		<rect x="16.3" y="14.2" class="st6" width="22.8" height="28.2"/>
		<rect x="16.3" y="14.2" class="st3" width="22.8" height="28.2"/>
		<path class="st22" d="M27.2,35.1h8.2 M27.2,27.6h8.2 M27.2,20.2h8.2"/>
		<rect x="20.1" y="25.6" class="st2" width="4" height="4"/>
		<rect x="20.1" y="25.6" class="st22" width="4" height="4"/>
		<rect x="20.1" y="33.1" class="st2" width="4" height="4"/>
		<rect x="20.1" y="33.1" class="st22" width="4" height="4"/>
		<rect x="20.1" y="18.2" class="st2" width="4" height="4"/>
		<rect x="20.1" y="18.2" class="st22" width="4" height="4"/>
	</g>
</g>
<g id="briefcase-plus" class="st0">
	<g class="st1">
		<g>
			<path class="st2" d="M44.4,26.2H15.1c-0.5,0-0.9-0.1-0.9-0.2v-4.5c0-0.1,0.4-0.2,0.9-0.2h29.3c0.5,0,0.9,0.1,0.9,0.2V26
				C45.3,26.1,44.9,26.2,44.4,26.2"/>
			<path class="st23" d="M37,21.2H22.5v-3.9c0-1,0.8-1.8,1.8-1.8h10.8c1.1,0,1.9,0.9,1.9,1.9V21.2z"/>
			<path class="st2" d="M44.4,41.3H15.1c-0.5,0-0.9-0.1-0.9-0.2v-4.5c0-0.1,0.4-0.2,0.9-0.2h29.3c0.5,0,0.9,0.1,0.9,0.2v4.5
				C45.3,41.2,44.9,41.3,44.4,41.3"/>
			<path class="st24" d="M44.4,41.2H15.1c-0.5,0-0.9-0.4-0.9-0.9V22.1c0-0.5,0.4-0.9,0.9-0.9h29.3c0.5,0,0.9,0.4,0.9,0.9v18.3
				C45.3,40.8,44.9,41.2,44.4,41.2z"/>
			<path class="st6" d="M35.7,31.2c0,3.3-2.7,5.9-5.9,5.9c-3.3,0-5.9-2.7-5.9-5.9c0-3.3,2.7-5.9,5.9-5.9
				C33,25.3,35.7,27.9,35.7,31.2"/>
			<circle class="st24" cx="29.7" cy="31.2" r="5.9"/>
		</g>
		<path class="st25" d="M32.4,31.4h-5.4 M29.8,28.7v5.4"/>
		<g>
			<path class="st23" d="M34.2,21.2h-8.9v-3.3h8.9c0,0,0.1,0,0.1,0.1V21.2z"/>
		</g>
	</g>
</g>
<g id="pencil" class="st0">
	<g class="st1">
		
			<rect x="16.1" y="27.5" transform="matrix(0.7071 -0.7071 0.7071 0.7071 -13.0383 27.6487)" class="st2" width="21.4" height="4"/>
		
			<rect x="16.1" y="27.5" transform="matrix(0.7071 -0.7071 0.7071 0.7071 -13.0383 27.6487)" class="st9" width="21.4" height="4"/>
		
			<rect x="17.6" y="26.9" transform="matrix(0.7071 -0.7071 0.7071 0.7071 -13.6311 29.0798)" class="st9" width="21.4" height="8.1"/>
		<polygon class="st6" points="14.2,45.1 23.4,41.6 17.6,35.9 		"/>
		<polygon class="st9" points="14.2,45.1 23.4,41.6 17.6,35.9 		"/>
		<polygon class="st10" points="15.7,41.3 16.9,42.4 18,43.5 16.2,44.3 14.4,45.1 15,43.2 		"/>
		<rect x="33.7" y="18" transform="matrix(0.7072 -0.707 0.707 0.7072 -3.4438 31.5082)" class="st2" width="5.1" height="3.8"/>
		
			<rect x="35.3" y="17.4" transform="matrix(0.7071 -0.7071 0.7071 0.7071 -4.0728 33.0389)" class="st9" width="5.1" height="8.1"/>
		<g>
			<path class="st2" d="M44.9,17.6l-3.2-3.2c-0.7-0.7-1.8-0.7-2.5,0l-2.4,2.4l5.7,5.7l2.4-2.4C45.6,19.4,45.6,18.3,44.9,17.6"/>
			<path class="st9" d="M44.9,17.6l-3.2-3.2c-0.7-0.7-1.8-0.7-2.5,0l-2.4,2.4l5.7,5.7l2.4-2.4C45.6,19.4,45.6,18.3,44.9,17.6z"/>
		</g>
		<line class="st9" x1="35" y1="18.6" x2="40.7" y2="24.3"/>
	</g>
</g>
<g id="certificate-roll" class="st0">
	<g class="st1">
		<path class="st6" d="M23.2,33.9c0,0,1.7,4,1,6.4l18-14.6c0,0,5.2-5.6,3.5-10L23.2,33.9z"/>
		<path class="st2" d="M24.1,36.9c0.2,1.1,0.3,2.4,0,3.3l18-14.6c0,0,2.7-2.9,3.6-6.2"/>
		<path class="st3" d="M14.9,31.6l-1.2,1c-1.4,1.2-2.1,3.1-2.1,5c0,3.5,2.9,6.4,6.4,6.4c3.5,0,6.4-2.9,6.4-6.4c0-1.6-0.6-3-1.5-4.1
			L45.8,15c0,0,2.2,6.2-5,11.9 M44.3,16.4c-0.1-0.1-0.2-0.3-0.3-0.4c-2.2-2.7-6.3-3.1-9-0.9L14.2,32.2c-2.7,2.2-3.4,6.6-1.2,9.3
			c2.2,2.7,6.6,3,9.4,0.8l18.9-15.8"/>
		<path class="st2" d="M20.1,35.7l-3.7,3c0,0,0.8,2.4,3.3,1.3C22.3,39,20.6,36.3,20.1,35.7"/>
		<path class="st3" d="M35.5,14.8c1.1-0.8,2.4-1.3,3.8-1.3c1.9,0,3.7,0.9,4.9,2.2 M21.1,37.4c0,1.7-1.3,3.1-2.8,3.1
			c-1,0-1.8-0.5-2.3-1.4l4.7-3.8 M12.4,34.4c0.8-1.4,2.3-2.4,4-2.4c2.6,0,4.7,2.4,4.7,5.3"/>
		<path class="st2" d="M28.7,20.5c-0.1,0-5.7,4.2-5,4.2c4.6,0,8.3,3.7,8.3,8.3c0,0.5,0,0.9-0.1,1.4c-0.1,0.4,2.1-1.4,3.6-2.7
			c0.7-0.6,1.6-1.4,1.6-1.6c0-0.5,0.1-0.7,0.1-1.3C37.3,24.3,33.3,20.5,28.7,20.5"/>
		<path class="st26" d="M28.7,20.5c-0.1,0-5.7,4.2-5,4.2c4.6,0,8.3,3.7,8.3,8.3c0,0.5,0,0.9-0.1,1.4c-0.1,0.4,2.1-1.4,3.6-2.7
			c0.7-0.6,1.6-1.4,1.6-1.6c0-0.5,0.1-0.7,0.1-1.3C37.3,24.3,33.3,20.5,28.7,20.5z"/>
		<path class="st26" d="M28.7,20.5c-0.1,0-5.7,4.2-5,4.2c4.6,0,8.3,3.7,8.3,8.3c0,0.5,0,0.9-0.1,1.4c-0.1,0.4,2.1-1.4,3.6-2.7
			c0.7-0.6,1.6-1.4,1.6-1.6c0-0.5,0.1-0.7,0.1-1.3C37.3,24.3,33.3,20.5,28.7,20.5z"/>
		<path class="st2" d="M37.6,30.3l11.2,1.8l-3.5,1.7l1.7,3.4l-11-4.9c-0.1,0-0.2,0.1-0.1,0.1l7.4,9.3l-4.4-0.4l-0.2,2.4l-6.8-9.3
			L37.6,30.3z"/>
		<path class="st26" d="M37.6,30.3l11.2,1.8l-3.5,1.7l1.7,3.4l-11-4.9c-0.1,0-0.2,0.1-0.1,0.1l7.4,9.3l-4.4-0.4l-0.2,2.4l-6.8-9.3
			L37.6,30.3z"/>
	</g>
</g>
<g id="briefcase" class="st0">
	<g class="st1">
		<g>
			<path class="st2" d="M44.4,42.4H15.1c-0.5,0-0.9-0.4-0.9-0.9v-20c0-0.5,0.4-0.9,0.9-0.9h29.3c0.5,0,0.9,0.4,0.9,0.9v20
				C45.3,42,44.9,42.4,44.4,42.4"/>
			<path class="st3" d="M44.4,42.4H15.1c-0.5,0-0.9-0.4-0.9-0.9v-20c0-0.5,0.4-0.9,0.9-0.9h29.3c0.5,0,0.9,0.4,0.9,0.9v20
				C45.3,42,44.9,42.4,44.4,42.4z"/>
		</g>
		<rect x="21.8" y="17.1" class="st4" width="15.9" height="9"/>
		<path class="st6" d="M39,33.2H20.5c-3.5,0-6.3-2.8-6.3-6.3v-4.8c0-0.8,0.7-1.5,1.5-1.5h28.1c0.8,0,1.5,0.7,1.5,1.5v4.8
			C45.3,30.3,42.5,33.2,39,33.2"/>
		<path class="st3" d="M39,33.2H20.5c-3.5,0-6.3-2.8-6.3-6.3v-4.8c0-0.8,0.7-1.5,1.5-1.5h28.1c0.8,0,1.5,0.7,1.5,1.5v4.8
			C45.3,30.3,42.5,33.2,39,33.2z"/>
		<path class="st6" d="M30.4,36.8h-1.3c-1,0-1.8-0.8-1.8-1.8v-4.6h4.8v4.6C32.2,36,31.4,36.8,30.4,36.8"/>
		<path class="st3" d="M30.4,36.8h-1.3c-1,0-1.8-0.8-1.8-1.8v-4.6h4.8v4.6C32.2,36,31.4,36.8,30.4,36.8z"/>
		<path class="st2" d="M28.1,31.2h1.7v4.9H29c0,0-0.9-0.1-0.9-0.9C28.1,34.4,28.1,31.2,28.1,31.2"/>
	</g>
</g>
<g id="microscope" class="st0">
	<g class="st1">
		<line class="st4" x1="15.3" y1="45.3" x2="44.6" y2="45.3"/>
		<g>
			<path class="st3" d="M30,19.3c6.2,0,11.3,5,11.3,11.3c0,6.2-5,11.3-11.3,11.3 M33.5,14.1L29.6,12l0.8-1.5
				c0.1-0.2,0.4-0.3,0.6-0.2l3.2,1.7c0.2,0.1,0.3,0.4,0.2,0.6L33.5,14.1z"/>
			<path class="st6" d="M24.5,43.8c0-4.7,3.8-8.5,8.5-8.5c4.7,0,8.5,3.8,8.5,8.5"/>
			<path class="st3" d="M24.5,43.8c0-4.7,3.8-8.5,8.5-8.5c4.7,0,8.5,3.8,8.5,8.5"/>
		</g>
		<rect x="17.9" y="39.8" class="st2" width="24.1" height="5.4"/>
		<rect x="17.9" y="39.8" class="st4" width="24.1" height="5.4"/>
		<polygon class="st2" points="32.1,14.3 24.5,29.1 26.4,30.2 34.3,15.1 		"/>
		<g>
			<path class="st3" d="M26.5,30.5l-6.6-3.5l7.7-14.6c0.2-0.5,0.8-0.7,1.3-0.4l4.9,2.6c0.5,0.2,0.7,0.8,0.4,1.3L26.5,30.5z"/>
			<path class="st2" d="M32.8,19.3c0,1.5-1.2,2.7-2.7,2.7c-1.5,0-2.7-1.2-2.7-2.7c0-1.5,1.2-2.7,2.7-2.7
				C31.5,16.5,32.8,17.8,32.8,19.3"/>
			<circle class="st3" cx="30" cy="19.3" r="2.7"/>
		</g>
		<line class="st4" x1="29.3" y1="9.2" x2="35.9" y2="12.8"/>
		<rect x="18.7" y="42.8" class="st2" width="22.6" height="1.8"/>
		<rect x="17.2" y="34.6" class="st10" width="15.8" height="1.4"/>
	</g>
</g>
<g id="lightbulb" class="st0">
	<g class="st1">
		<g>
			<path class="st6" d="M33.6,37.1v4.1H26v-4.1L25.8,37c-4.8-1.6-8.2-6.2-8.2-11.5c0-6.7,5.4-12.2,12.2-12.2
				c6.7,0,12.2,5.4,12.2,12.2c0,5.3-3.4,9.9-8.2,11.5L33.6,37.1z"/>
			<path class="st27" d="M33.6,37.1v4.1H26v-4.1L25.8,37c-4.8-1.6-8.2-6.2-8.2-11.5c0-6.7,5.4-12.2,12.2-12.2
				c6.7,0,12.2,5.4,12.2,12.2c0,5.3-3.4,9.9-8.2,11.5L33.6,37.1z"/>
		</g>
		<polygon class="st2" points="31.8,45.7 31.8,48.2 27.7,48.2 27.7,45.7 26,45.7 26,41.2 33.6,41.2 33.6,45.7 		"/>
		<polygon class="st27" points="31.8,45.7 31.8,48.2 27.7,48.2 27.7,45.7 26,45.7 26,41.2 33.6,41.2 33.6,45.7 		"/>
		<path class="st12" d="M21.6,25c0-4.5,3.7-8.2,8.2-8.2"/>
	</g>
</g>
<g id="letter" class="st0">
	<g class="st1">
		<g>
			<path class="st2" d="M28.8,42.1h17c0,0-0.1,3.3-3.3,3.3H27.4C27.4,45.4,28.8,44.2,28.8,42.1"/>
			<path class="st3" d="M42,45.8H25.4c-2.2,0-4-1.9-4-4.3V20.3c0-3.9-3.7-4.3-3.7-4.3h7.7h13.1c2.2,0,4,1.9,4,4.3v21.4l3.5,0.1
				C46,44.2,44.2,45.8,42,45.8z"/>
			<path class="st2" d="M21.2,20L21.2,20c0-2.2-1.6-3.9-3.5-3.9c-1.9,0-3.5,1.8-3.5,3.9H21.2z"/>
			<path class="st3" d="M21.2,20L21.2,20c0-2.2-1.6-3.9-3.5-3.9c-1.9,0-3.5,1.8-3.5,3.9H21.2z"/>
			<path class="st3" d="M46,41.8H28.8c0,2.2-1.7,3.9-3.7,3.9c-2,0-3.7-1.8-3.7-3.9"/>
		</g>
		<path class="st4" d="M25,37.1H32 M25,27h13.9 M25,32.1h13.9 M25,22h9.6"/>
	</g>
</g>
<g id="book" class="st0">
	<g class="st1">
		<g>
			<path class="st28" d="M13.6,39.9V21.7h12.1l3.4,3.1c0.1,0.1,0.3,0.2,0.5,0.2c0.2,0,0.3-0.1,0.5-0.2l3.8-3.1h12.1v18.2H13.6z"/>
			<path class="st15" d="M46.7,21H33.6l-4,3.3L26,21H12.8v19.7h33.8V21z M45.2,22.5v16.7H14.3V22.5h11.1l3.2,2.9
				c0.3,0.3,0.7,0.4,1,0.4c0.3,0,0.7-0.1,1-0.3l3.6-3H45.2z"/>
			<path class="st6" d="M28.7,37.6c-0.9-1-2.1-1.5-3.4-1.5h-7.9V19.6h7.9c0.9,0,1.7,0.4,2.3,1l2.1,2.3l2.1-2.3c0.6-0.7,1.4-1,2.3-1
				H42v16.5h-7.9c-1.3,0-2.5,0.6-3.4,1.5l-1,1.1L28.7,37.6z"/>
			<path class="st15" d="M42.8,18.8h-8.6c-1.1,0-2.1,0.5-2.9,1.3l-1.6,1.7l-1.6-1.7c-0.8-0.8-1.8-1.3-2.9-1.3h-8.6v18h8.6
				c1.1,0,2.1,0.5,2.9,1.3l1.6,1.7l1.6-1.7c0.8-0.8,1.8-1.3,2.9-1.3h8.6V18.8z M41.3,20.3v15h-7.1c-1.5,0-2.9,0.6-4,1.8l-0.5,0.5
				l-0.5-0.5c-1-1.1-2.5-1.8-4-1.8h-7.1v-15h7.1c0.7,0,1.3,0.3,1.8,0.8l1.6,1.7l1.1,1.2l1.1-1.2l1.6-1.7c0.5-0.5,1.1-0.8,1.8-0.8
				H41.3z"/>
		</g>
		<line class="st16" x1="29.8" y1="38.7" x2="29.8" y2="22.7"/>
		<path class="st22" d="M33.6,31.6h5.3 M33.6,27.9h5.3 M33.6,24.3h5.3 M20.6,31.6h5.3 M20.6,27.9h5.3 M20.6,24.3h5.3"/>
	</g>
</g>
<g id="certificate" class="st0">
	<g class="st1">
		<path class="st15" d="M44.9,13.8H14.6V36h30.3V13.8z M43.4,34.5H16.1V15.3h27.3V34.5z"/>
		<path class="st22" d="M20.7,28.8h18.2 M20.7,20h18.2 M20.7,24.4h18.2"/>
		<polygon class="st2" points="26.7,39.7 32.8,39.7 34,47.9 29.8,43.9 25.5,47.9 		"/>
		<path class="st15" d="M33.5,38.9H26l-1.6,11l5.3-5l5.3,5L33.5,38.9z M32.2,40.4l0.8,5.4l-2.2-2l-1-1l-1,1l-2.2,2l0.8-5.4H32.2z"/>
		<path class="st6" d="M29.8,40.6c-2.4,0-4.3-1.9-4.3-4.3s1.9-4.3,4.3-4.3c2.4,0,4.3,1.9,4.3,4.3S32.1,40.6,29.8,40.6"/>
		<path class="st15" d="M29.8,31.2c-2.8,0-5.1,2.3-5.1,5.1s2.3,5.1,5.1,5.1c2.8,0,5.1-2.3,5.1-5.1S32.6,31.2,29.8,31.2 M29.8,32.7
			c2,0,3.6,1.6,3.6,3.6c0,2-1.6,3.6-3.6,3.6c-2,0-3.6-1.6-3.6-3.6C26.2,34.3,27.8,32.7,29.8,32.7"/>
	</g>
</g>
</svg>
